<?xml version="1.0" standalone="no"?>
<!DOCTYPE svg PUBLIC "-//W3C//DTD SVG 20010904//EN"
 "http://www.w3.org/TR/2001/REC-SVG-20010904/DTD/svg10.dtd">
<svg version="1.0" xmlns="http://www.w3.org/2000/svg"
 width="211.000000pt" height="211.000000pt" viewBox="0 0 211.000000 211.000000"
 preserveAspectRatio="xMidYMid meet">

<g transform="translate(0.000000,211.000000) scale(0.100000,-0.100000)"
fill="#000000" stroke="none">
<path d="M905 2046 c-494 -81 -847 -515 -822 -1011 28 -557 508 -974 1063
-923 501 45 883 462 884 964 0 126 -10 195 -46 309 -83 262 -301 497 -557 599
-163 65 -361 89 -522 62z m580 -257 c69 -19 142 -88 150 -141 2 -13 8 -45 13
-73 13 -62 0 -128 -39 -207 -33 -66 -155 -201 -173 -191 -6 3 -2 -5 10 -18 11
-13 32 -43 48 -65 15 -23 41 -54 59 -70 18 -16 26 -29 19 -32 -6 -2 -17 -22
-23 -45 -8 -30 -30 -60 -82 -113 -63 -62 -90 -80 -216 -143 -109 -53 -155 -71
-185 -71 -59 1 -77 18 -69 66 6 38 6 39 -14 22 -35 -31 -89 -16 -75 21 5 14 4
14 -12 2 -27 -22 -16 -54 27 -74 20 -10 37 -22 37 -27 0 -14 -30 -20 -70 -14
-38 6 -70 36 -84 79 -3 11 -18 29 -32 40 -14 11 -44 37 -66 57 -37 34 -40 41
-43 95 -1 32 -5 77 -10 100 -5 29 -3 55 9 89 9 26 16 61 16 78 -1 28 -2 29
-14 14 -7 -10 -25 -18 -40 -18 -16 0 -25 -4 -21 -10 11 -18 -39 -11 -80 11
-54 29 -108 99 -98 126 3 7 1 13 -5 13 -17 0 -34 96 -27 150 8 57 68 158 111
187 39 25 118 21 159 -9 37 -27 108 -104 124 -135 l11 -23 49 35 c68 49 128
74 197 80 l59 5 -53 -15 c-85 -24 -163 -65 -216 -114 -42 -39 -48 -43 -43 -22
3 13 2 20 -3 15 -13 -13 -14 -35 -6 -75 5 -23 4 -45 -3 -58 -14 -25 9 -76 70
-157 22 -28 39 -55 39 -61 0 -14 35 -44 43 -37 3 3 3 12 0 20 -7 19 15 44 39
44 12 0 57 37 112 93 127 128 138 144 131 181 -6 30 -5 30 17 -9 18 -30 33
-42 64 -51 l41 -12 -1 55 c-1 30 2 57 5 59 4 2 17 -8 28 -23 l20 -28 1 46 c0
55 -22 134 -46 160 -9 11 -15 21 -12 24 3 3 17 -12 31 -32 31 -44 36 -33 7 15
-28 46 -25 65 14 100 36 31 32 42 -15 42 -45 0 -140 -116 -160 -195 -5 -24 -7
-25 -8 -7 -1 12 -4 22 -8 22 -5 0 -14 4 -22 9 -12 7 -9 18 14 58 50 85 76 112
138 143 65 32 99 36 162 19z m-278 -346 c-3 -10 -5 -4 -5 12 0 17 2 24 5 18 2
-7 2 -21 0 -30z m-447 -735 c0 -13 -23 -5 -28 10 -2 7 2 10 12 6 9 -3 16 -11
16 -16z m245 -108 c3 -5 1 -10 -4 -10 -6 0 -11 5 -11 10 0 6 2 10 4 10 3 0 8
-4 11 -10z"/>
<path d="M524 1600 c-54 -22 -106 -128 -107 -215 0 -68 37 -160 74 -183 l22
-14 -21 29 c-12 16 -30 53 -42 82 -20 52 -20 53 -1 142 20 96 37 124 82 134
41 9 66 -2 74 -33 4 -15 11 -29 16 -33 14 -9 60 -199 54 -220 -5 -15 -1 -19
20 -19 19 0 28 7 36 27 13 36 2 136 -21 189 -20 48 -83 114 -108 114 -9 0 -26
2 -37 5 -11 2 -30 0 -41 -5z"/>
<path d="M1409 1440 c0 -8 0 -63 1 -122 1 -70 -3 -108 -9 -108 -23 0 -10 -15
14 -16 24 -2 30 9 26 44 -1 8 4 21 12 30 9 10 16 41 17 72 4 81 2 90 -18 90
-10 0 -23 5 -30 12 -9 9 -12 9 -13 -2z"/>
<path d="M1371 1364 c0 -11 3 -14 6 -6 3 7 2 16 -1 19 -3 4 -6 -2 -5 -13z"/>
<path d="M1509 1323 l-24 -28 28 24 c25 23 32 31 24 31 -2 0 -14 -12 -28 -27z"/>
<path d="M1208 1127 c-51 -43 -82 -142 -58 -188 36 -69 85 -87 134 -48 38 30
58 75 58 129 0 105 -70 161 -134 107z"/>
<path d="M691 1047 c-6 -8 -13 -29 -16 -48 -5 -32 -5 -32 6 -9 l11 25 9 -30
c5 -16 7 -38 5 -47 -2 -10 0 -18 5 -18 5 0 9 -8 9 -17 0 -10 11 -31 24 -48
l24 -30 36 19 c40 21 40 23 1 111 -25 55 -66 105 -88 105 -8 0 -20 -6 -26 -13z"/>
</g>
</svg>
