<?xml version="1.0" encoding="UTF-8"?>
<svg version="1.1" xmlns="http://www.w3.org/2000/svg" width="120" height="120">
<path d="M0 0 C39.6 0 79.2 0 120 0 C120 39.6 120 79.2 120 120 C80.4 120 40.8 120 0 120 C0 80.4 0 40.8 0 0 Z " fill="#040403" transform="translate(0,0)"/>
<path d="M0 0 C-0.33 0.99 -0.66 1.98 -1 3 C-1.51046875 2.84660156 -2.0209375 2.69320313 -2.546875 2.53515625 C-5.7749338 1.83094597 -8.95418001 1.65111796 -12.25 1.4375 C-14.14492187 1.31181641 -14.14492187 1.31181641 -16.078125 1.18359375 C-17.04234375 1.12300781 -18.0065625 1.06242187 -19 1 C-19 0.34 -19 -0.32 -19 -1 C-26.48490209 -0.0519124 -32.4164891 1.28929386 -39 5 C-39.99 5.33 -40.98 5.66 -42 6 C-43.17138134 9.43315137 -43.17138134 9.43315137 -44 13 C-44.33 13.66 -44.66 14.32 -45 15 C-45.23029956 17.37123246 -45.41119942 19.74741943 -45.5625 22.125 C-45.64628906 23.40632813 -45.73007812 24.68765625 -45.81640625 26.0078125 C-45.87699219 26.99523437 -45.93757813 27.98265625 -46 29 C-45.34 29 -44.68 29 -44 29 C-44 29.99 -44 30.98 -44 32 C-42.7625 32.2475 -41.525 32.495 -40.25 32.75 C-22.54028926 36.75710227 -22.54028926 36.75710227 -18 43 C-15.7822353 46.5198072 -14.06615977 49.54448507 -13.875 53.75 C-15.50097738 57.00195477 -17.91377586 58.19970258 -21 60 C-21.33 60.33 -21.66 60.66 -22 61 C-24.43014159 61.12743425 -26.81930235 61.18521121 -29.25 61.1875 C-29.91902344 61.19974609 -30.58804688 61.21199219 -31.27734375 61.22460938 C-35.30686909 61.2364842 -38.37575151 60.77700556 -42 59 C-42 57.68 -42 56.36 -42 55 C-44.28565956 57.12802787 -45.96939049 58.94515797 -47.5 61.6875 C-49 64 -49 64 -51 64.6875 C-51.66 64.790625 -52.32 64.89375 -53 65 C-54.485 65.99 -54.485 65.99 -56 67 C-54.6326716 62.29980864 -52.60693542 58.35875691 -50 54.25 C-49.64421875 53.67378906 -49.2884375 53.09757812 -48.921875 52.50390625 C-47.42341351 50.10524961 -46.00643874 48.00643874 -44 46 C-42.68 46 -41.36 46 -40 46 C-38.33333333 47.66666667 -36.66666667 49.33333333 -35 51 C-30.16538175 53.30743144 -25.27054249 53.45326665 -20 53 C-19.34 52.67 -18.68 52.34 -18 52 C-18.03955898 50.07690578 -18.03955898 50.07690578 -19 48 C-23.59100096 44.97665791 -27.66423179 44.5081684 -33 44 C-38.65136088 43.16575149 -42.71291966 40.72615394 -47 37 C-51.60499916 30.46265786 -53.02665815 22.86720066 -52 15 C-48.95229969 6.98239835 -44.12208206 1.83812222 -36.375 -1.75 C-24.01988152 -7.09824307 -12.00091557 -5.61744984 0 0 Z " fill="#EEEEED" transform="translate(84,25)"/>
<path d="M0 0 C1.32 0 2.64 0 4 0 C4.495 0.99 4.495 0.99 5 2 C3.7421875 4.3203125 3.7421875 4.3203125 1.875 7.125 C-0.42738558 10.59228305 -2.59731392 14.05456245 -4.625 17.6875 C-6.64002724 20.90100749 -6.64002724 20.90100749 -9.5 21.6875 C-12.42845248 20.88217557 -14.56221756 19.8109241 -17 18 C-17 17.34 -17 16.68 -17 16 C-19.97 16.66 -22.94 17.32 -26 18 C-23.43338745 21.84991882 -20.56461714 22.45893114 -16.375 23.875 C-1.93333152 29.01242229 -1.93333152 29.01242229 3 35 C4.88174327 39.39904222 5.22205966 43.11907651 5.125 47.875 C5.10695312 49.02742188 5.08890625 50.17984375 5.0703125 51.3671875 C5.04710937 52.23601562 5.02390625 53.10484375 5 54 C4.01 54.495 4.01 54.495 3 55 C2.7525 55.70125 2.505 56.4025 2.25 57.125 C-0.46260113 63.3639826 -4.72847986 67.44736643 -10.8984375 70.22265625 C-14.2194413 71.45105729 -17.53828177 72.25820324 -21 73 C-19.61049772 70.22099544 -17.96466972 70.05202252 -15.125 68.875 C-11.3899463 67.13436161 -11.3899463 67.13436161 -8.8125 64.0703125 C-8.09947913 62.04104845 -8.09947913 62.04104845 -7.6953125 60.0625 C-7 58 -7 58 -4.95703125 55.65625 C-2.5339352 52.36741703 -2.49167024 50.54201825 -2.5625 46.5 C-2.56378906 45.3965625 -2.56507812 44.293125 -2.56640625 43.15625 C-3.05498685 39.59973537 -3.76649398 37.80142742 -6 35 C-10.95940699 31.74515956 -16.46866328 29.13439183 -22.3125 28 C-26.95156813 26.74194763 -29.9765911 24.74410521 -33 21 C-33.9375 17.625 -33.9375 17.625 -34 15 C-31.79799506 12.65119473 -29.98588157 11.16316855 -26.7578125 10.62890625 C-20.69153285 10.46827268 -15.59552729 11.72935124 -10 14 C-9.52949219 13.32453125 -9.05898437 12.6490625 -8.57421875 11.953125 C-7.64029297 10.61507812 -7.64029297 10.61507812 -6.6875 9.25 C-5.76517578 7.92742188 -5.76517578 7.92742188 -4.82421875 6.578125 C-4.22222656 5.72734375 -3.62023437 4.8765625 -3 4 C-2.51144531 3.23171875 -2.02289063 2.4634375 -1.51953125 1.671875 C-1.01808594 1.12015625 -0.51664063 0.5684375 0 0 Z " fill="#EDEDEC" transform="translate(88,25)"/>
<path d="M0 0 C21.14343213 4.87925357 21.14343213 4.87925357 26.2109375 12.921875 C27.90729522 15.95027201 28.96631131 18.25884892 29.125 21.75 C27.49902262 25.00195477 25.08622414 26.19970258 22 28 C21.505 28.495 21.505 28.495 21 29 C18.56985841 29.12743425 16.18069765 29.18521121 13.75 29.1875 C13.08097656 29.19974609 12.41195312 29.21199219 11.72265625 29.22460938 C7.69313091 29.2364842 4.62424849 28.77700556 1 27 C1 25.68 1 24.36 1 23 C-1.28565956 25.12802787 -2.96939049 26.94515797 -4.5 29.6875 C-6 32 -6 32 -8 32.6875 C-8.99 32.8421875 -8.99 32.8421875 -10 33 C-10.99 33.66 -11.98 34.32 -13 35 C-11.6326716 30.29980864 -9.60693542 26.35875691 -7 22.25 C-6.64421875 21.67378906 -6.2884375 21.09757812 -5.921875 20.50390625 C-4.42341351 18.10524961 -3.00643874 16.00643874 -1 14 C0.32 14 1.64 14 3 14 C4.66666667 15.66666667 6.33333333 17.33333333 8 19 C12.83461825 21.30743144 17.72945751 21.45326665 23 21 C23.66 20.67 24.32 20.34 25 20 C24.42267934 16.65154016 23.51363917 15.24432069 21 13 C18.66666667 10.66666667 16.33333333 8.33333333 14 6 C11.34462628 5.43479997 8.70855287 5.26211802 6 5 C6 4.34 6 3.68 6 3 C5.195625 2.87625 4.39125 2.7525 3.5625 2.625 C2.716875 2.41875 1.87125 2.2125 1 2 C0.67 1.34 0.34 0.68 0 0 Z " fill="#E9E9E8" transform="translate(41,57)"/>
<path d="M0 0 C4.11336093 1.45177445 7.50833145 3.38124858 11 6 C12.14077657 9.42232972 12.09815117 12.08673217 12.0625 15.6875 C12.05347656 16.86699219 12.04445313 18.04648438 12.03515625 19.26171875 C12.02355469 20.16535156 12.01195313 21.06898437 12 22 C11.34 22.33 10.68 22.66 10 23 C9.7525 23.70125 9.505 24.4025 9.25 25.125 C6.53739887 31.3639826 2.27152014 35.44736643 -3.8984375 38.22265625 C-7.2194413 39.45105729 -10.53828177 40.25820324 -14 41 C-12.61049772 38.22099544 -10.96466972 38.05202252 -8.125 36.875 C-4.3899463 35.13436161 -4.3899463 35.13436161 -1.8125 32.0703125 C-1.09947913 30.04104845 -1.09947913 30.04104845 -0.6953125 28.0625 C0 26 0 26 2.0390625 23.65234375 C5.49711076 18.9750235 4.72834138 13.57461287 4 8 C2.9278889 5.50456899 1.79794189 4.07887031 0 2 C0 1.34 0 0.68 0 0 Z " fill="#F3F3F2" transform="translate(81,57)"/>
<path d="M0 0 C-0.33 0.99 -0.66 1.98 -1 3 C-1.51046875 2.84660156 -2.0209375 2.69320313 -2.546875 2.53515625 C-5.7749338 1.83094597 -8.95418001 1.65111796 -12.25 1.4375 C-14.14492187 1.31181641 -14.14492187 1.31181641 -16.078125 1.18359375 C-17.04234375 1.12300781 -18.0065625 1.06242187 -19 1 C-19 0.34 -19 -0.32 -19 -1 C-26.48490209 -0.0519124 -32.4164891 1.28929386 -39 5 C-39.99 5.33 -40.98 5.66 -42 6 C-42.33 6.66 -42.66 7.32 -43 8 C-43.99 8 -44.98 8 -46 8 C-46.33 8.99 -46.66 9.98 -47 11 C-47.66 11 -48.32 11 -49 11 C-47.57894013 6.47844585 -45.67196159 3.99751967 -42 1 C-27.69734891 -6.45496894 -14.62840912 -6.84734044 0 0 Z " fill="#D3D3D2" transform="translate(84,25)"/>
<path d="M0 0 C1.21236328 0.01353516 1.21236328 0.01353516 2.44921875 0.02734375 C3.37154297 0.04474609 3.37154297 0.04474609 4.3125 0.0625 C4.3125 0.7225 4.3125 1.3825 4.3125 2.0625 C8.9325 2.0625 13.5525 2.0625 18.3125 2.0625 C18.6425 2.7225 18.9725 3.3825 19.3125 4.0625 C18.6525 4.7225 17.9925 5.3825 17.3125 6.0625 C16.61501417 7.37997324 15.94290043 8.71164193 15.3125 10.0625 C14.6525 10.0625 13.9925 10.0625 13.3125 10.0625 C13.6425 11.3825 13.9725 12.7025 14.3125 14.0625 C13.549375 13.8975 12.78625 13.7325 12 13.5625 C7.09104151 12.89687851 2.25814886 12.98329922 -2.6875 13.0625 C-2.6875 12.0725 -2.6875 11.0825 -2.6875 10.0625 C-2.06101562 10.03671875 -1.43453125 10.0109375 -0.7890625 9.984375 C0.02820312 9.92765625 0.84546875 9.8709375 1.6875 9.8125 C2.49960937 9.76609375 3.31171875 9.7196875 4.1484375 9.671875 C6.48974304 9.27584556 6.48974304 9.27584556 7.5390625 7.078125 C7.92191406 6.08039062 7.92191406 6.08039062 8.3125 5.0625 C8.6425 4.7325 8.9725 4.4025 9.3125 4.0625 C8.45785156 4.00191406 7.60320312 3.94132812 6.72265625 3.87890625 C5.61792969 3.79511719 4.51320313 3.71132813 3.375 3.625 C2.27285156 3.54378906 1.17070313 3.46257813 0.03515625 3.37890625 C-2.6875 3.0625 -2.6875 3.0625 -3.6875 2.0625 C-6.02694736 2.34980055 -8.3614143 2.68186779 -10.6875 3.0625 C-6.91890928 0.55010618 -4.42510751 -0.06413199 0 0 Z " fill="#303030" transform="translate(60.6875,23.9375)"/>
<path d="M0 0 C0.51046875 0.23074219 1.0209375 0.46148437 1.546875 0.69921875 C6.06112675 2.72422884 10.59864516 4.64956291 15.1875 6.5 C20.89839514 8.86864099 25.80178909 11.33532122 30 16 C29.67 16.66 29.34 17.32 29 18 C26.03 16.35 23.06 14.7 20 13 C19.67 13.66 19.34 14.32 19 15 C18.3709375 14.66226563 17.741875 14.32453125 17.09375 13.9765625 C11.75466652 11.19444972 6.90038308 9.20192989 1 8 C1.99 7.67 2.98 7.34 4 7 C4 6.34 4 5.68 4 5 C2.68 4.34 1.36 3.68 0 3 C0 2.01 0 1.02 0 0 Z " fill="#C6C6C6" transform="translate(61,44)"/>
<path d="M0 0 C21.14343213 4.87925357 21.14343213 4.87925357 26.2109375 12.921875 C27.92474278 15.98142 28.96819063 18.28428911 29.125 21.8125 C27.49222756 24.98733529 25.22529618 25.69615686 22 27 C22.33 25.68 22.66 24.36 23 23 C20.69 23 18.38 23 16 23 C16 22.67 16 22.34 16 22 C18.97 21.34 21.94 20.68 25 20 C23.98410522 15.93642089 23.85306539 15.54737981 21 13 C18.66666667 10.66666667 16.33333333 8.33333333 14 6 C11.34462628 5.43479997 8.70855287 5.26211802 6 5 C6 4.34 6 3.68 6 3 C5.195625 2.87625 4.39125 2.7525 3.5625 2.625 C2.716875 2.41875 1.87125 2.2125 1 2 C0.67 1.34 0.34 0.68 0 0 Z " fill="#858584" transform="translate(41,57)"/>
<path d="M0 0 C1.32 0.33 2.64 0.66 4 1 C2.54699102 3.14961616 1.0879574 5.29467129 -0.375 7.4375 C-0.7875 8.04916016 -1.2 8.66082031 -1.625 9.29101562 C-4.7734375 13.88671875 -4.7734375 13.88671875 -7 15 C-8.5 13.6875 -8.5 13.6875 -10 12 C-10 9 -10 9 -8 6.8125 C-7.34 6.214375 -6.68 5.61625 -6 5 C-6.66 4.67 -7.32 4.34 -8 4 C-6.865625 3.71125 -5.73125 3.4225 -4.5625 3.125 C-3.386875 2.75375 -2.21125 2.3825 -1 2 C-0.67 1.34 -0.34 0.68 0 0 Z " fill="#0C0C0C" transform="translate(84,25)"/>
<path d="M0 0 C0 5.69946401 -1.21099847 10.63299542 -3 16 C-3.37531446 18.32694964 -3.71917202 20.65976685 -4 23 C-3.34 23 -2.68 23 -2 23 C-2.66 24.32 -3.32 25.64 -4 27 C-4 26.01 -4 25.02 -4 24 C-4.66 24 -5.32 24 -6 24 C-6.81514025 8.08212234 -6.81514025 8.08212234 -2 1 C-1.34 0.67 -0.68 0.34 0 0 Z " fill="#393A39" transform="translate(44,30)"/>
<path d="M0 0 C0.66 0.33 1.32 0.66 2 1 C1.01 1.66 0.02 2.32 -1 3 C-0.67 3.66 -0.34 4.32 0 5 C-1.269553 5.64834654 -2.54069706 6.29357815 -3.8125 6.9375 C-4.52019531 7.29714844 -5.22789063 7.65679688 -5.95703125 8.02734375 C-8 9 -8 9 -11 10 C-11.33 10.66 -11.66 11.32 -12 12 C-12.99 12 -13.98 12 -15 12 C-15.33 12.99 -15.66 13.98 -16 15 C-16.66 15 -17.32 15 -18 15 C-16.25773834 9.45644016 -13.41857743 6.30715023 -8.296875 3.5390625 C-5.55052409 2.23778105 -2.87960546 0.97377962 0 0 Z " fill="#D3D4D3" transform="translate(53,21)"/>
<path d="M0 0 C1.4765625 1.08984375 1.4765625 1.08984375 3 3 C3.3984375 6.06640625 3.3984375 6.06640625 3.375 9.5625 C3.38273437 10.71878906 3.39046875 11.87507813 3.3984375 13.06640625 C3.26695313 14.03449219 3.13546875 15.00257812 3 16 C2.01 16.66 1.02 17.32 0 18 C-0.50636607 16.25183142 -1.00484619 14.50137737 -1.5 12.75 C-1.7784375 11.77546875 -2.056875 10.8009375 -2.34375 9.796875 C-3 7 -3 7 -3 3 C-2.01 3 -1.02 3 0 3 C0 2.01 0 1.02 0 0 Z " fill="#262725" transform="translate(83,62)"/>
<path d="M0 0 C0.33 0 0.66 0 1 0 C1.3125 2.25 1.3125 2.25 1 5 C-3.05830291 9.47812735 -9.32968345 12.12337598 -15 14 C-17.67822303 14.11063228 -19.39770487 13.75177415 -22 13 C-22 12.67 -22 12.34 -22 12 C-21.41992188 11.89042969 -20.83984375 11.78085938 -20.2421875 11.66796875 C-15.38629584 10.68236698 -11.38247299 9.39992568 -7 7 C-6.01 6.67 -5.02 6.34 -4 6 C-2.90833725 4.06669397 -2.90833725 4.06669397 -2 2 C-1.34 1.34 -0.68 0.68 0 0 Z " fill="#454644" transform="translate(79,85)"/>
<path d="M0 0 C0.66 0 1.32 0 2 0 C2 1.32 2 2.64 2 4 C6.4378561 5.11165232 10.76956386 5.11527763 15.3125 5.0625 C16.42334961 5.05573242 16.42334961 5.05573242 17.55664062 5.04882812 C19.37112899 5.03712175 21.18557534 5.01918898 23 5 C23 5.66 23 6.32 23 7 C22.01 7 21.02 7 20 7 C20 7.66 20 8.32 20 9 C12.64825194 9.55253221 7.488417 8.51064108 1 5 C1 4.01 1 3.02 1 2 C0.34 1.67 -0.32 1.34 -1 1 C-0.67 0.67 -0.34 0.34 0 0 Z " fill="#4F504F" transform="translate(40,80)"/>
<path d="M0 0 C2.3125 0.1875 2.3125 0.1875 5 1 C7.19074436 3.62889323 7.98082999 5.19485942 8.0625 8.625 C6.54403492 12.01921606 4.35063937 12.64548621 1 14 C1.33 12.68 1.66 11.36 2 10 C-0.31 10 -2.62 10 -5 10 C-5 9.67 -5 9.34 -5 9 C-2.03 8.34 0.94 7.68 4 7 C3.04065919 3.16263678 2.76390737 2.40339772 0 0 Z " fill="#B6B7B6" transform="translate(62,70)"/>
<path d="M0 0 C0 0.66 0 1.32 0 2 C-0.56847656 2.18175781 -1.13695312 2.36351562 -1.72265625 2.55078125 C-6.60701003 4.14084634 -11.31029027 5.90459778 -16 8 C-16.33 7.34 -16.66 6.68 -17 6 C-16.34 6 -15.68 6 -15 6 C-14.67 4.68 -14.34 3.36 -14 2 C-12.23225581 1.46877637 -10.46065917 0.95035927 -8.6875 0.4375 C-7.70136719 0.14746094 -6.71523438 -0.14257812 -5.69921875 -0.44140625 C-3 -1 -3 -1 0 0 Z " fill="#1E1E1D" transform="translate(60,26)"/>
<path d="M0 0 C1.9375 0.375 1.9375 0.375 4 1 C4.33 1.66 4.66 2.32 5 3 C9.67685309 6.89737758 15.18031312 6.70442921 21 7 C21 7.33 21 7.66 21 8 C18.60385874 8.05425226 16.20896147 8.09379027 13.8125 8.125 C12.80219727 8.15013672 12.80219727 8.15013672 11.77148438 8.17578125 C7.75253692 8.21499049 4.52126015 8.02739221 1 6 C0.1875 2.875 0.1875 2.875 0 0 Z " fill="#9F9F9E" transform="translate(41,78)"/>
<path d="M0 0 C0.58007812 0.26554687 1.16015625 0.53109375 1.7578125 0.8046875 C6.11686745 2.77561334 10.41910068 4.59049252 15 6 C15 6.33 15 6.66 15 7 C12.69 7 10.38 7 8 7 C8 7.66 8 8.32 8 9 C5.69 8.67 3.38 8.34 1 8 C1.99 7.67 2.98 7.34 4 7 C4 6.34 4 5.68 4 5 C2.68 4.34 1.36 3.68 0 3 C0 2.01 0 1.02 0 0 Z " fill="#A9A9A8" transform="translate(61,44)"/>
<path d="M0 0 C2.64 0.99 5.28 1.98 8 3 C7.67 3.99 7.34 4.98 7 6 C6.48953125 5.84660156 5.9790625 5.69320313 5.453125 5.53515625 C2.2250662 4.83094597 -0.95418001 4.65111796 -4.25 4.4375 C-5.51328125 4.35371094 -6.7765625 4.26992188 -8.078125 4.18359375 C-9.04234375 4.12300781 -10.0065625 4.06242187 -11 4 C-11 3.34 -11 2.68 -11 2 C-13.31 2 -15.62 2 -18 2 C-18 1.67 -18 1.34 -18 1 C-15.03 1 -12.06 1 -9 1 C-9 1.66 -9 2.32 -9 3 C-4.545 2.505 -4.545 2.505 0 2 C0 1.34 0 0.68 0 0 Z " fill="#D1D1D1" transform="translate(76,22)"/>
<path d="M0 0 C1.34411639 4.03234918 0.72449904 6.53502217 -0.5078125 10.54296875 C-3.0309062 14.6974869 -6.86346515 15.7529407 -11.28515625 17.35546875 C-14 18 -14 18 -16 17 C-14.86111328 16.48953125 -14.86111328 16.48953125 -13.69921875 15.96875 C-6.84781084 12.85699543 -6.84781084 12.85699543 -2.9375 6.8125 C-2.628125 5.554375 -2.31875 4.29625 -2 3 C-1.34 2.01 -0.68 1.02 0 0 Z " fill="#C2C2BF" transform="translate(83,80)"/>
<path d="M0 0 C1.21236328 0.01353516 1.21236328 0.01353516 2.44921875 0.02734375 C3.37154297 0.04474609 3.37154297 0.04474609 4.3125 0.0625 C4.3125 0.7225 4.3125 1.3825 4.3125 2.0625 C8.9325 2.0625 13.5525 2.0625 18.3125 2.0625 C13.80933708 4.31408146 13.80933708 4.31408146 10.23828125 4.07421875 C9.48869141 4.02716797 8.73910156 3.98011719 7.96679688 3.93164062 C7.19400391 3.87169922 6.42121094 3.81175781 5.625 3.75 C4.4484082 3.67749023 4.4484082 3.67749023 3.24804688 3.60351562 C-2.54181644 3.20818356 -2.54181644 3.20818356 -3.6875 2.0625 C-6.02694736 2.34980055 -8.3614143 2.68186779 -10.6875 3.0625 C-6.91890928 0.55010618 -4.42510751 -0.06413199 0 0 Z " fill="#4F504F" transform="translate(60.6875,23.9375)"/>
<path d="M0 0 C5.28 0 10.56 0 16 0 C16.33 0.99 16.66 1.98 17 3 C13.7 3 10.4 3 7 3 C7 2.34 7 1.68 7 1 C4.69 1 2.38 1 0 1 C0 0.67 0 0.34 0 0 Z " fill="#F8F8F8" transform="translate(60,22)"/>
<path d="M0 0 C3.67420866 0.30618405 4.78135513 0.75771784 7.3125 3.5625 C8.1478125 4.7690625 8.1478125 4.7690625 9 6 C6.36 5.67 3.72 5.34 1 5 C0.67 3.35 0.34 1.7 0 0 Z " fill="#EAEAEA" transform="translate(54,64)"/>
<path d="M0 0 C1.32 0.33 2.64 0.66 4 1 C1.69 4.3 -0.62 7.6 -3 11 C-3.33 10.01 -3.66 9.02 -4 8 C-3.34 7.01 -2.68 6.02 -2 5 C-2.33 4.34 -2.66 3.68 -3 3 C-1.75 1.4375 -1.75 1.4375 0 0 Z " fill="#282928" transform="translate(84,25)"/>
<path d="M0 0 C2.1875 1.875 2.1875 1.875 4 4 C4 4.66 4 5.32 4 6 C1.75 6.3125 1.75 6.3125 -1 6 C-3.3125 3.5 -3.3125 3.5 -5 1 C-3 0 -3 0 0 0 Z " fill="#D7D7D6" transform="translate(61,45)"/>
<path d="M0 0 C7.81636537 1.91722169 7.81636537 1.91722169 10 5 C10 5.66 10 6.32 10 7 C5.61308455 6.49381745 3.15608721 3.86917019 0 1 C0 0.67 0 0.34 0 0 Z " fill="#8C8C8B" transform="translate(56,63)"/>
<path d="M0 0 C0.33 0 0.66 0 1 0 C1 2.31 1 4.62 1 7 C0.34 7 -0.32 7 -1 7 C-1 10.3 -1 13.6 -1 17 C-1.33 17 -1.66 17 -2 17 C-2.05398987 14.72942623 -2.09278742 12.45848712 -2.125 10.1875 C-2.14820313 8.92292969 -2.17140625 7.65835938 -2.1953125 6.35546875 C-2 3 -2 3 0 0 Z " fill="#8D8C8C" transform="translate(40,37)"/>
<path d="M0 0 C2.3125 0.1875 2.3125 0.1875 5 1 C6.875 3.3125 6.875 3.3125 8 6 C7.6875 8.3125 7.6875 8.3125 7 10 C6.67 9.34 6.34 8.68 6 8 C5.34 7.67 4.68 7.34 4 7 C3.855625 6.38125 3.71125 5.7625 3.5625 5.125 C2.90282543 2.63289608 1.91711371 1.6670554 0 0 Z " fill="#A6A7A6" transform="translate(62,70)"/>
<path d="M0 0 C2.97 0 5.94 0 9 0 C8.34 0.66 7.68 1.32 7 2 C6.67 2.99 6.34 3.98 6 5 C4.02 4.01 2.04 3.02 0 2 C0 1.34 0 0.68 0 0 Z " fill="#BABAB9" transform="translate(69,51)"/>
<path d="M0 0 C1.32 0 2.64 0 4 0 C3.67 1.65 3.34 3.3 3 5 C2.34 4.67 1.68 4.34 1 4 C0.01 4.495 0.01 4.495 -1 5 C-1.33 5.99 -1.66 6.98 -2 8 C-2.66 8 -3.32 8 -4 8 C-2.87548273 5.0280615 -1.77706209 2.66559313 0 0 Z " fill="#C2C2C1" transform="translate(39,28)"/>
<path d="M0 0 C-3.70000666 3.54583971 -7.05057663 3.76051177 -12 4 C-12.66 3.34 -13.32 2.68 -14 2 C-4.58997722 -0.29612756 -4.58997722 -0.29612756 0 0 Z " fill="#2A2B2A" transform="translate(71,95)"/>
<path d="M0 0 C0.33 0 0.66 0 1 0 C1 4.29 1 8.58 1 13 C0.01 13.33 -0.98 13.66 -2 14 C-2 11.69 -2 9.38 -2 7 C-1.67 7 -1.34 7 -1 7 C-0.67 4.69 -0.34 2.38 0 0 Z " fill="#BEBEBD" transform="translate(92,66)"/>
<path d="M0 0 C1.54571278 2.31856917 2.79618552 4.50638429 4 7 C3.01 7 2.02 7 1 7 C0.67 6.34 0.34 5.68 0 5 C-0.99 5.33 -1.98 5.66 -3 6 C-2.625 3.5625 -2.625 3.5625 -2 1 C-1.34 0.67 -0.68 0.34 0 0 Z " fill="#292928" transform="translate(53,41)"/>
<path d="M0 0 C-1.04874998 2.62187494 -1.64931313 3.79371361 -4.125 5.25 C-4.74375 5.4975 -5.3625 5.745 -6 6 C-6.33 5.01 -6.66 4.02 -7 3 C-4.49955934 -0.00052879 -4.2621484 0 0 0 Z " fill="#292A28" transform="translate(36,88)"/>
<path d="M0 0 C1.32 0 2.64 0 4 0 C4.33 0.66 4.66 1.32 5 2 C3.68 3.32 2.36 4.64 1 6 C0.67 5.01 0.34 4.02 0 3 C-0.66 2.67 -1.32 2.34 -2 2 C-1.34 1.34 -0.68 0.68 0 0 Z " fill="#A0A0A0" transform="translate(88,25)"/>
<path d="M0 0 C0.66 0 1.32 0 2 0 C2 0.66 2 1.32 2 2 C2.99 1.67 3.98 1.34 5 1 C4.1875 2.9375 4.1875 2.9375 3 5 C2.01 5.33 1.02 5.66 0 6 C0 5.34 0 4.68 0 4 C-0.66 3.67 -1.32 3.34 -2 3 C-1.34 2.01 -0.68 1.02 0 0 Z " fill="#2B2B2A" transform="translate(90,21)"/>
<path d="M0 0 C1.73662334 3.22515763 2.8905928 6.51329166 4 10 C2 10 2 10 0.3125 8.375 C-1.43013159 5.22166664 -0.8539524 3.41580961 0 0 Z " fill="#41413F" transform="translate(32,50)"/>
<path d="M0 0 C0.66 0 1.32 0 2 0 C2.33 1.65 2.66 3.3 3 5 C0 5 0 5 -3 4 C-1.625 2 -1.625 2 0 0 Z " fill="#E2E2E1" transform="translate(86,28)"/>
<path d="M0 0 C7.75 0.75 7.75 0.75 10 3 C8.375 3.6875 8.375 3.6875 6 4 C2.75 2.5625 2.75 2.5625 0 1 C0 0.67 0 0.34 0 0 Z " fill="#9A9B99" transform="translate(42,65)"/>
<path d="M0 0 C1.50662097 3.01324195 1.17770373 5.68286377 1 9 C0.34 9.66 -0.32 10.32 -1 11 C-2.23076923 4.6 -2.23076923 4.6 -1.0625 1.5625 C-0.711875 1.046875 -0.36125 0.53125 0 0 Z " fill="#B5B5B4" transform="translate(34,36)"/>
<path d="M0 0 C-0.639375 0.2475 -1.27875 0.495 -1.9375 0.75 C-4.18741541 1.81562433 -4.18741541 1.81562433 -4.75 4.125 C-4.8325 4.74375 -4.915 5.3625 -5 6 C-6.32 5.34 -7.64 4.68 -9 4 C-9 3.34 -9 2.68 -9 2 C-5.86501708 0.14223235 -3.62528568 -0.20140476 0 0 Z " fill="#3B3B39" transform="translate(71,41)"/>
<path d="M0 0 C0 3.41099168 -0.49145406 6.63088314 -1 10 C-1.66 10 -2.32 10 -3 10 C-3.36923077 3.47692308 -3.36923077 3.47692308 -1.5 1.0625 C-1.005 0.711875 -0.51 0.36125 0 0 Z " fill="#434342" transform="translate(44,30)"/>
<path d="M0 0 C2.31 0.33 4.62 0.66 7 1 C5.6875 2.5 5.6875 2.5 4 4 C3.01 4 2.02 4 1 4 C0.67 2.68 0.34 1.36 0 0 Z " fill="#D1D2D1" transform="translate(75,52)"/>
</svg>
